<svg width="66" height="18" viewBox="0 0 66 18" fill="none" xmlns="http://www.w3.org/2000/svg">
<path d="M3.55556 16.5926H4.74075V17.7778H3.55556V16.5926ZM4.74075 16.5926H5.92593V17.7778H4.74075V16.5926ZM5.92593 16.5926H7.11112V17.7778H5.92593V16.5926ZM5.92593 15.4075H7.11112V16.5926H5.92593V15.4075ZM5.92593 14.2223H7.11112V15.4075H5.92593V14.2223ZM5.92593 13.0371H7.11112V14.2223H5.92593V13.0371ZM5.92593 11.8519H7.11112V13.0371H5.92593V11.8519ZM5.92593 10.6667H7.11112V11.8519H5.92593V10.6667ZM5.92593 9.48154H7.11112V10.6667H5.92593V9.48154ZM5.92593 8.29635H7.11112V9.48154H5.92593V8.29635ZM5.92593 7.11117H7.11112V8.29635H5.92593V7.11117ZM5.92593 5.92598H7.11112V7.11117H5.92593V5.92598ZM5.92593 4.7408H7.11112V5.92598H5.92593V4.7408ZM5.92593 3.55561H7.11112V4.7408H5.92593V3.55561ZM4.74075 3.55561H5.92593V4.7408H4.74075V3.55561ZM4.74075 2.37042H5.92593V3.55561H4.74075V2.37042ZM5.92593 2.37042H7.11112V3.55561H5.92593V2.37042ZM3.55556 2.37042H4.74075V3.55561H3.55556V2.37042ZM3.55556 7.11117H4.74075V8.29635H3.55556V7.11117ZM3.55556 8.29635H4.74075V9.48154H3.55556V8.29635ZM3.55556 9.48154H4.74075V10.6667H3.55556V9.48154ZM3.55556 10.6667H4.74075V11.8519H3.55556V10.6667ZM3.55556 11.8519H4.74075V13.0371H3.55556V11.8519ZM4.74075 13.0371H5.92593V14.2223H4.74075V13.0371ZM4.74075 14.2223H5.92593V15.4075H4.74075V14.2223ZM4.74075 15.4075H5.92593V16.5926H4.74075V15.4075ZM3.55556 15.4075H4.74075V16.5926H3.55556V15.4075ZM3.55556 14.2223H4.74075V15.4075H3.55556V14.2223ZM3.55556 13.0371H4.74075V14.2223H3.55556V13.0371ZM4.74075 8.29635H5.92593V9.48154H4.74075V8.29635ZM4.74075 7.11117H5.92593V8.29635H4.74075V7.11117ZM4.74075 5.92598H5.92593V7.11117H4.74075V5.92598ZM4.74075 4.7408H5.92593V5.92598H4.74075V4.7408ZM3.55556 4.7408H4.74075V5.92598H3.55556V4.7408ZM3.55556 5.92598H4.74075V7.11117H3.55556V5.92598ZM4.74075 11.8519H5.92593V13.0371H4.74075V11.8519ZM4.74075 10.6667H5.92593V11.8519H4.74075V10.6667ZM4.74075 9.48154H5.92593V10.6667H4.74075V9.48154ZM3.55556 3.55561H4.74075V4.7408H3.55556V3.55561ZM3.55556 1.18524H4.74075V2.37042H3.55556V1.18524ZM4.74075 1.18524H5.92593V2.37042H4.74075V1.18524ZM5.92593 1.18524H7.11112V2.37042H5.92593V1.18524ZM5.92593 5.34058e-05H7.11112V1.18524H5.92593V5.34058e-05ZM4.74075 5.34058e-05H5.92593V1.18524H4.74075V5.34058e-05ZM3.55556 5.34058e-05H4.74075V1.18524H3.55556V5.34058e-05ZM2.37037 5.34058e-05H3.55556V1.18524H2.37037V5.34058e-05ZM1.18519 5.34058e-05H2.37037V1.18524H1.18519V5.34058e-05ZM1.18519 1.18524H2.37037V2.37042H1.18519V1.18524ZM1.18519 2.37042H2.37037V3.55561H1.18519V2.37042ZM2.37037 1.18524H3.55556V2.37042H2.37037V1.18524ZM2.37037 2.37042H3.55556V3.55561H2.37037V2.37042ZM7.11112 5.34058e-05H8.2963V1.18524H7.11112V5.34058e-05ZM8.2963 5.34058e-05H9.48149V1.18524H8.2963V5.34058e-05ZM8.2963 1.18524H9.48149V2.37042H8.2963V1.18524ZM8.2963 2.37042H9.48149V3.55561H8.2963V2.37042ZM7.11112 2.37042H8.2963V3.55561H7.11112V2.37042ZM7.11112 1.18524H8.2963V2.37042H7.11112V1.18524ZM9.48149 5.34058e-05H10.6667V1.18524H9.48149V5.34058e-05ZM9.48149 1.18524H10.6667V2.37042H9.48149V1.18524ZM9.48149 2.37042H10.6667V3.55561H9.48149V2.37042ZM4.52995e-06 5.34058e-05H1.18519V1.18524H4.52995e-06V5.34058e-05ZM4.52995e-06 1.18524H1.18519V2.37042H4.52995e-06V1.18524ZM4.52995e-06 2.37042H1.18519V3.55561H4.52995e-06V2.37042ZM22.5127 17.7778H21.3276V16.5926H22.5127V17.7778ZM20.1424 17.7778H18.9572V16.5926H20.1424V17.7778ZM18.9572 17.7778H17.772V16.5926H18.9572V17.7778ZM17.772 17.7778H16.5868V16.5926H17.772V17.7778ZM16.5868 17.7778H15.4016V16.5926H16.5868V17.7778ZM15.4016 16.5926H14.2164V15.4075H15.4016V16.5926ZM16.5868 16.5926H15.4016V15.4075H16.5868V16.5926ZM17.772 16.5926H16.5868V15.4075H17.772V16.5926ZM18.9572 16.5926H17.772V15.4075H18.9572V16.5926ZM20.1424 16.5926H18.9572V15.4075H20.1424V16.5926ZM21.3276 16.5926H20.1424V15.4075H21.3276V16.5926ZM22.5127 16.5926H21.3276V15.4075H22.5127V16.5926ZM23.6979 16.5926H22.5127V15.4075H23.6979V16.5926ZM23.6979 15.4075H22.5127V14.2223H23.6979V15.4075ZM22.5127 15.4075H21.3276V14.2223H22.5127V15.4075ZM24.8831 15.4075H23.6979V14.2223H24.8831V15.4075ZM24.8831 14.2223H23.6979V13.0371H24.8831V14.2223ZM24.8831 13.0371H23.6979V11.8519H24.8831V13.0371ZM23.6979 13.0371H22.5127V11.8519H23.6979V13.0371ZM22.5127 13.0371H21.3276V11.8519H22.5127V13.0371ZM22.5127 14.2223H21.3276V13.0371H22.5127V14.2223ZM23.6979 14.2223H22.5127V13.0371H23.6979V14.2223ZM23.6979 11.8519H22.5127V10.6667H23.6979V11.8519ZM23.6979 10.6667H22.5127V9.48154H23.6979V10.6667ZM23.6979 9.48154H22.5127V8.29635H23.6979V9.48154ZM24.8831 9.48154H23.6979V8.29635H24.8831V9.48154ZM24.8831 8.29635H23.6979V7.11117H24.8831V8.29635ZM24.8831 10.6667H23.6979V9.48154H24.8831V10.6667ZM24.8831 11.8519H23.6979V10.6667H24.8831V11.8519ZM22.5127 11.8519H21.3276V10.6667H22.5127V11.8519ZM22.5127 10.6667H21.3276V9.48154H22.5127V10.6667ZM22.5127 9.48154H21.3276V8.29635H22.5127V9.48154ZM22.5127 8.29635H21.3276V7.11117H22.5127V8.29635ZM23.6979 8.29635H22.5127V7.11117H23.6979V8.29635ZM23.6979 7.11117H22.5127V5.92598H23.6979V7.11117ZM22.5127 7.11117H21.3276V5.92598H22.5127V7.11117ZM21.3276 7.11117H20.1424V5.92598H21.3276V7.11117ZM21.3276 8.29635H20.1424V7.11117H21.3276V8.29635ZM22.5127 5.92598H21.3276V4.7408H22.5127V5.92598ZM21.3276 5.92598H20.1424V4.7408H21.3276V5.92598ZM20.1424 5.92598H18.9572V4.7408H20.1424V5.92598ZM18.9572 5.92598H17.772V4.7408H18.9572V5.92598ZM17.772 5.92598H16.5868V4.7408H17.772V5.92598ZM16.5868 5.92598H15.4016V4.7408H16.5868V5.92598ZM17.772 7.11117H16.5868V5.92598H17.772V7.11117ZM18.9572 7.11117H17.772V5.92598H18.9572V7.11117ZM20.1424 7.11117H18.9572V5.92598H20.1424V7.11117ZM16.5868 7.11117H15.4016V5.92598H16.5868V7.11117ZM15.4016 7.11117H14.2164V5.92598H15.4016V7.11117ZM16.5868 8.29635H15.4016V7.11117H16.5868V8.29635ZM17.772 8.29635H16.5868V7.11117H17.772V8.29635ZM15.4016 8.29635H14.2164V7.11117H15.4016V8.29635ZM14.2164 8.29635H13.0313V7.11117H14.2164V8.29635ZM15.4016 14.2223H14.2164V13.0371H15.4016V14.2223ZM14.2164 14.2223H13.0313V13.0371H14.2164V14.2223ZM14.2164 15.4075H13.0313V14.2223H14.2164V15.4075ZM16.5868 14.2223H15.4016V13.0371H16.5868V14.2223ZM16.5868 15.4075H15.4016V14.2223H16.5868V15.4075ZM15.4016 15.4075H14.2164V14.2223H15.4016V15.4075ZM20.1424 8.29635H18.9572V7.11117H20.1424V8.29635ZM18.9572 8.29635H17.772V7.11117H18.9572V8.29635ZM15.4016 13.0371H14.2164V11.8519H15.4016V13.0371ZM16.5868 13.0371H15.4016V11.8519H16.5868V13.0371ZM20.1424 11.8519H18.9572V10.6667H20.1424V11.8519ZM18.9572 11.8519H17.772V10.6667H18.9572V11.8519ZM17.772 11.8519H16.5868V10.6667H17.772V11.8519ZM16.5868 11.8519H15.4016V10.6667H16.5868V11.8519ZM21.3276 11.8519H20.1424V10.6667H21.3276V11.8519ZM23.6979 15.4075H24.8831V16.5926H23.6979V15.4075ZM23.6979 16.5926H24.8831V17.7778H23.6979V16.5926ZM22.5127 16.5926H23.6979V17.7778H22.5127V16.5926ZM20.1424 9.48154H21.3276V10.6667H20.1424V9.48154ZM18.9572 9.48154H20.1424V10.6667H18.9572V9.48154ZM17.772 9.48154H18.9572V10.6667H17.772V9.48154ZM16.5868 9.48154H17.772V10.6667H16.5868V9.48154ZM15.4016 9.48154H16.5868V10.6667H15.4016V9.48154ZM14.2164 10.6667H15.4016V11.8519H14.2164V10.6667ZM13.0313 11.8519H14.2164V13.0371H13.0313V11.8519ZM16.5868 14.2223H17.772V15.4075H16.5868V14.2223ZM17.772 14.2223H18.9572V15.4075H17.772V14.2223ZM18.9572 14.2223H20.1424V15.4075H18.9572V14.2223ZM20.1424 14.2223H21.3276V15.4075H20.1424V14.2223ZM36.7315 7.11117H37.9167V8.29635H36.7315V7.11117ZM36.7315 5.92598H37.9167V7.11117H36.7315V5.92598ZM35.5463 7.11117H36.7315V8.29635H35.5463V7.11117ZM34.3611 7.11117H35.5463V8.29635H34.3611V7.11117ZM34.3611 5.92598H35.5463V7.11117H34.3611V5.92598ZM35.5463 5.92598H36.7315V7.11117H35.5463V5.92598ZM35.5463 4.7408H36.7315V5.92598H35.5463V4.7408ZM34.3611 4.7408H35.5463V5.92598H34.3611V4.7408ZM33.1759 4.7408H34.3611V5.92598H33.1759V4.7408ZM31.9907 4.7408H33.1759V5.92598H31.9907V4.7408ZM30.8056 4.7408H31.9907V5.92598H30.8056V4.7408ZM29.6204 4.7408H30.8056V5.92598H29.6204V4.7408ZM29.6204 5.92598H30.8056V7.11117H29.6204V5.92598ZM30.8056 5.92598H31.9907V7.11117H30.8056V5.92598ZM31.9907 5.92598H33.1759V7.11117H31.9907V5.92598ZM33.1759 5.92598H34.3611V7.11117H33.1759V5.92598ZM28.4352 5.92598H29.6204V7.11117H28.4352V5.92598ZM28.4352 7.11117H29.6204V8.29635H28.4352V7.11117ZM28.4352 8.29635H29.6204V9.48154H28.4352V8.29635ZM29.6204 8.29635H30.8056V9.48154H29.6204V8.29635ZM29.6204 7.11117H30.8056V8.29635H29.6204V7.11117ZM27.25 8.29635H28.4352V9.48154H27.25V8.29635ZM27.25 7.11117H28.4352V8.29635H27.25V7.11117ZM29.6204 9.48154H30.8056V10.6667H29.6204V9.48154ZM28.4352 9.48154H29.6204V10.6667H28.4352V9.48154ZM29.6204 10.6667H30.8056V11.8519H29.6204V10.6667ZM30.8056 10.6667H31.9907V11.8519H30.8056V10.6667ZM31.9907 10.6667H33.1759V11.8519H31.9907V10.6667ZM31.9907 9.48154H33.1759V10.6667H31.9907V9.48154ZM33.1759 9.48154H34.3611V10.6667H33.1759V9.48154ZM33.1759 10.6667H34.3611V11.8519H33.1759V10.6667ZM34.3611 10.6667H35.5463V11.8519H34.3611V10.6667ZM35.5463 10.6667H36.7315V11.8519H35.5463V10.6667ZM35.5463 9.48154H36.7315V10.6667H35.5463V9.48154ZM34.3611 9.48154H35.5463V10.6667H34.3611V9.48154ZM30.8056 9.48154H31.9907V10.6667H30.8056V9.48154ZM27.25 13.0371H28.4352V14.2223H27.25V13.0371ZM27.25 14.2223H28.4352V15.4075H27.25V14.2223ZM28.4352 13.0371H29.6204V14.2223H28.4352V13.0371ZM29.6204 13.0371H30.8056V14.2223H29.6204V13.0371ZM29.6204 14.2223H30.8056V15.4075H29.6204V14.2223ZM28.4352 14.2223H29.6204V15.4075H28.4352V14.2223ZM28.4352 15.4075H29.6204V16.5926H28.4352V15.4075ZM29.6204 15.4075H30.8056V16.5926H29.6204V15.4075ZM30.8056 15.4075H31.9907V16.5926H30.8056V15.4075ZM30.8056 14.2223H31.9907V15.4075H30.8056V14.2223ZM29.6204 16.5926H30.8056V17.7778H29.6204V16.5926ZM30.8056 16.5926H31.9907V17.7778H30.8056V16.5926ZM31.9907 16.5926H33.1759V17.7778H31.9907V16.5926ZM33.1759 16.5926H34.3611V17.7778H33.1759V16.5926ZM34.3611 16.5926H35.5463V17.7778H34.3611V16.5926ZM33.1759 15.4075H34.3611V16.5926H33.1759V15.4075ZM31.9907 15.4075H33.1759V16.5926H31.9907V15.4075ZM34.3611 15.4075H35.5463V16.5926H34.3611V15.4075ZM35.5463 15.4075H36.7315V16.5926H35.5463V15.4075ZM35.5463 16.5926H36.7315V17.7778H35.5463V16.5926ZM36.7315 15.4075H37.9167V16.5926H36.7315V15.4075ZM35.5463 14.2223H36.7315V15.4075H35.5463V14.2223ZM34.3611 14.2223H35.5463V15.4075H34.3611V14.2223ZM36.7315 14.2223H37.9167V15.4075H36.7315V14.2223ZM37.9167 14.2223H39.1019V15.4075H37.9167V14.2223ZM37.9167 13.0371H39.1019V14.2223H37.9167V13.0371ZM37.9167 11.8519H39.1019V13.0371H37.9167V11.8519ZM36.7315 11.8519H37.9167V13.0371H36.7315V11.8519ZM36.7315 10.6667H37.9167V11.8519H36.7315V10.6667ZM35.5463 11.8519H36.7315V13.0371H35.5463V11.8519ZM34.3611 11.8519H35.5463V13.0371H34.3611V11.8519ZM35.5463 13.0371H36.7315V14.2223H35.5463V13.0371ZM36.7315 13.0371H37.9167V14.2223H36.7315V13.0371ZM30.8056 7.11117H31.9907V8.29635H30.8056V7.11117ZM41.4688 5.34058e-05H42.6539V1.18524H41.4688V5.34058e-05ZM42.6539 5.34058e-05H43.8391V1.18524H42.6539V5.34058e-05ZM43.8391 1.18524H45.0243V2.37042H43.8391V1.18524ZM43.8391 2.37042H45.0243V3.55561H43.8391V2.37042ZM43.8391 3.55561H45.0243V4.7408H43.8391V3.55561ZM43.8391 4.7408H45.0243V5.92598H43.8391V4.7408ZM43.8391 5.92598H45.0243V7.11117H43.8391V5.92598ZM43.8391 7.11117H45.0243V8.29635H43.8391V7.11117ZM42.6539 8.29635H43.8391V9.48154H42.6539V8.29635ZM42.6539 9.48154H43.8391V10.6667H42.6539V9.48154ZM42.6539 7.11117H43.8391V8.29635H42.6539V7.11117ZM42.6539 5.92598H43.8391V7.11117H42.6539V5.92598ZM43.8391 5.34058e-05H45.0243V1.18524H43.8391V5.34058e-05ZM42.6539 1.18524H43.8391V2.37042H42.6539V1.18524ZM42.6539 2.37042H43.8391V3.55561H42.6539V2.37042ZM41.4688 2.37042H42.6539V3.55561H41.4688V2.37042ZM41.4688 3.55561H42.6539V4.7408H41.4688V3.55561ZM41.4688 4.7408H42.6539V5.92598H41.4688V4.7408ZM42.6539 4.7408H43.8391V5.92598H42.6539V4.7408ZM42.6539 3.55561H43.8391V4.7408H42.6539V3.55561ZM41.4688 1.18524H42.6539V2.37042H41.4688V1.18524ZM41.4688 5.92598H42.6539V7.11117H41.4688V5.92598ZM41.4688 7.11117H42.6539V8.29635H41.4688V7.11117ZM41.4688 8.29635H42.6539V9.48154H41.4688V8.29635ZM41.4688 9.48154H42.6539V10.6667H41.4688V9.48154ZM41.4688 10.6667H42.6539V11.8519H41.4688V10.6667ZM41.4688 11.8519H42.6539V13.0371H41.4688V11.8519ZM41.4688 13.0371H42.6539V14.2223H41.4688V13.0371ZM41.4688 14.2223H42.6539V15.4075H41.4688V14.2223ZM41.4688 15.4075H42.6539V16.5926H41.4688V15.4075ZM41.4688 16.5926H42.6539V17.7778H41.4688V16.5926ZM42.6539 16.5926H43.8391V17.7778H42.6539V16.5926ZM43.8391 16.5926H45.0243V17.7778H43.8391V16.5926ZM43.8391 15.4075H45.0243V16.5926H43.8391V15.4075ZM43.8391 14.2223H45.0243V15.4075H43.8391V14.2223ZM43.8391 13.0371H45.0243V14.2223H43.8391V13.0371ZM43.8391 11.8519H45.0243V13.0371H43.8391V11.8519ZM43.8391 10.6667H45.0243V11.8519H43.8391V10.6667ZM43.8391 9.48154H45.0243V10.6667H43.8391V9.48154ZM43.8391 8.29635H45.0243V9.48154H43.8391V8.29635ZM42.6539 10.6667H43.8391V11.8519H42.6539V10.6667ZM42.6539 11.8519H43.8391V13.0371H42.6539V11.8519ZM42.6539 15.4075H43.8391V16.5926H42.6539V15.4075ZM42.6539 14.2223H43.8391V15.4075H42.6539V14.2223ZM42.6539 13.0371H43.8391V14.2223H42.6539V13.0371ZM45.0243 10.6667H46.2095V11.8519H45.0243V10.6667ZM46.2095 10.6667H47.3947V11.8519H46.2095V10.6667ZM46.2095 9.48154H47.3947V10.6667H46.2095V9.48154ZM45.0243 9.48154H46.2095V10.6667H45.0243V9.48154ZM45.0243 11.8519H46.2095V13.0371H45.0243V11.8519ZM46.2095 11.8519H47.3947V13.0371H46.2095V11.8519ZM47.3947 10.6667H48.5799V11.8519H47.3947V10.6667ZM47.3947 9.48154H48.5799V10.6667H47.3947V9.48154ZM46.2095 8.29635H47.3947V9.48154H46.2095V8.29635ZM47.3947 8.29635H48.5799V9.48154H47.3947V8.29635ZM48.5799 9.48154H49.7651V10.6667H48.5799V9.48154ZM48.5799 8.29635H49.7651V9.48154H48.5799V8.29635ZM48.5799 7.11117H49.7651V8.29635H48.5799V7.11117ZM49.7651 7.11117H50.9502V8.29635H49.7651V7.11117ZM49.7651 5.92598H50.9502V7.11117H49.7651V5.92598ZM48.5799 5.92598H49.7651V7.11117H48.5799V5.92598ZM48.5799 4.7408H49.7651V5.92598H48.5799V4.7408ZM47.3947 4.7408H48.5799V5.92598H47.3947V4.7408ZM47.3947 5.92598H48.5799V7.11117H47.3947V5.92598ZM47.3947 7.11117H48.5799V8.29635H47.3947V7.11117ZM49.7651 4.7408H50.9502V5.92598H49.7651V4.7408ZM49.7651 8.29635H50.9502V9.48154H49.7651V8.29635ZM48.5799 11.8519H49.7651V13.0371H48.5799V11.8519ZM47.3947 11.8519H48.5799V13.0371H47.3947V11.8519ZM46.2095 13.0371H47.3947V14.2223H46.2095V13.0371ZM47.3947 13.0371H48.5799V14.2223H47.3947V13.0371ZM48.5799 13.0371H49.7651V14.2223H48.5799V13.0371ZM49.7651 13.0371H50.9502V14.2223H49.7651V13.0371ZM49.7651 14.2223H50.9502V15.4075H49.7651V14.2223ZM49.7651 15.4075H50.9502V16.5926H49.7651V15.4075ZM49.7651 16.5926H50.9502V17.7778H49.7651V16.5926ZM48.5799 16.5926H49.7651V17.7778H48.5799V16.5926ZM48.5799 15.4075H49.7651V16.5926H48.5799V15.4075ZM48.5799 14.2223H49.7651V15.4075H48.5799V14.2223ZM47.3947 15.4075H48.5799V16.5926H47.3947V15.4075ZM47.3947 16.5926H48.5799V17.7778H47.3947V16.5926ZM47.3947 14.2223H48.5799V15.4075H47.3947V14.2223ZM62.794 17.7778H61.6088V16.5926H62.794V17.7778ZM60.4236 17.7778H59.2384V16.5926H60.4236V17.7778ZM59.2384 17.7778H58.0532V16.5926H59.2384V17.7778ZM58.0532 17.7778H56.8681V16.5926H58.0532V17.7778ZM56.8681 17.7778H55.6829V16.5926H56.8681V17.7778ZM55.6829 16.5926H54.4977V15.4075H55.6829V16.5926ZM56.8681 16.5926H55.6829V15.4075H56.8681V16.5926ZM58.0532 16.5926H56.8681V15.4075H58.0532V16.5926ZM59.2384 16.5926H58.0532V15.4075H59.2384V16.5926ZM60.4236 16.5926H59.2384V15.4075H60.4236V16.5926ZM61.6088 16.5926H60.4236V15.4075H61.6088V16.5926ZM62.794 16.5926H61.6088V15.4075H62.794V16.5926ZM63.9792 16.5926H62.794V15.4075H63.9792V16.5926ZM63.9792 15.4075H62.794V14.2223H63.9792V15.4075ZM62.794 15.4075H61.6088V14.2223H62.794V15.4075ZM65.1644 15.4075H63.9792V14.2223H65.1644V15.4075ZM65.1644 14.2223H63.9792V13.0371H65.1644V14.2223ZM65.1644 13.0371H63.9792V11.8519H65.1644V13.0371ZM63.9792 13.0371H62.794V11.8519H63.9792V13.0371ZM62.794 13.0371H61.6088V11.8519H62.794V13.0371ZM62.794 14.2223H61.6088V13.0371H62.794V14.2223ZM63.9792 14.2223H62.794V13.0371H63.9792V14.2223ZM63.9792 11.8519H62.794V10.6667H63.9792V11.8519ZM63.9792 10.6667H62.794V9.48154H63.9792V10.6667ZM63.9792 9.48154H62.794V8.29635H63.9792V9.48154ZM65.1644 9.48154H63.9792V8.29635H65.1644V9.48154ZM65.1644 8.29635H63.9792V7.11117H65.1644V8.29635ZM65.1644 10.6667H63.9792V9.48154H65.1644V10.6667ZM65.1644 11.8519H63.9792V10.6667H65.1644V11.8519ZM62.794 11.8519H61.6088V10.6667H62.794V11.8519ZM62.794 10.6667H61.6088V9.48154H62.794V10.6667ZM62.794 9.48154H61.6088V8.29635H62.794V9.48154ZM62.794 8.29635H61.6088V7.11117H62.794V8.29635ZM63.9792 8.29635H62.794V7.11117H63.9792V8.29635ZM63.9792 7.11117H62.794V5.92598H63.9792V7.11117ZM62.794 7.11117H61.6088V5.92598H62.794V7.11117ZM61.6088 7.11117H60.4236V5.92598H61.6088V7.11117ZM61.6088 8.29635H60.4236V7.11117H61.6088V8.29635ZM62.794 5.92598H61.6088V4.7408H62.794V5.92598ZM61.6088 5.92598H60.4236V4.7408H61.6088V5.92598ZM60.4236 5.92598H59.2384V4.7408H60.4236V5.92598ZM59.2384 5.92598H58.0532V4.7408H59.2384V5.92598ZM58.0532 5.92598H56.8681V4.7408H58.0532V5.92598ZM56.8681 5.92598H55.6829V4.7408H56.8681V5.92598ZM58.0532 7.11117H56.8681V5.92598H58.0532V7.11117ZM59.2384 7.11117H58.0532V5.92598H59.2384V7.11117ZM60.4236 7.11117H59.2384V5.92598H60.4236V7.11117ZM56.8681 7.11117H55.6829V5.92598H56.8681V7.11117ZM55.6829 7.11117H54.4977V5.92598H55.6829V7.11117ZM56.8681 8.29635H55.6829V7.11117H56.8681V8.29635ZM58.0532 8.29635H56.8681V7.11117H58.0532V8.29635ZM55.6829 8.29635H54.4977V7.11117H55.6829V8.29635ZM54.4977 8.29635H53.3125V7.11117H54.4977V8.29635ZM55.6829 14.2223H54.4977V13.0371H55.6829V14.2223ZM54.4977 14.2223H53.3125V13.0371H54.4977V14.2223ZM54.4977 15.4075H53.3125V14.2223H54.4977V15.4075ZM56.8681 14.2223H55.6829V13.0371H56.8681V14.2223ZM56.8681 15.4075H55.6829V14.2223H56.8681V15.4075ZM55.6829 15.4075H54.4977V14.2223H55.6829V15.4075ZM60.4236 8.29635H59.2384V7.11117H60.4236V8.29635ZM59.2384 8.29635H58.0532V7.11117H59.2384V8.29635ZM55.6829 13.0371H54.4977V11.8519H55.6829V13.0371ZM56.8681 13.0371H55.6829V11.8519H56.8681V13.0371ZM60.4236 11.8519H59.2384V10.6667H60.4236V11.8519ZM59.2384 11.8519H58.0532V10.6667H59.2384V11.8519ZM58.0532 11.8519H56.8681V10.6667H58.0532V11.8519ZM56.8681 11.8519H55.6829V10.6667H56.8681V11.8519ZM61.6088 11.8519H60.4236V10.6667H61.6088V11.8519ZM63.9792 15.4075H65.1644V16.5926H63.9792V15.4075ZM63.9792 16.5926H65.1644V17.7778H63.9792V16.5926ZM62.794 16.5926H63.9792V17.7778H62.794V16.5926ZM60.4236 9.48154H61.6088V10.6667H60.4236V9.48154ZM59.2384 9.48154H60.4236V10.6667H59.2384V9.48154ZM58.0532 9.48154H59.2384V10.6667H58.0532V9.48154ZM56.8681 9.48154H58.0532V10.6667H56.8681V9.48154ZM55.6829 9.48154H56.8681V10.6667H55.6829V9.48154ZM54.4977 10.6667H55.6829V11.8519H54.4977V10.6667ZM53.3125 11.8519H54.4977V13.0371H53.3125V11.8519ZM56.8681 14.2223H58.0532V15.4075H56.8681V14.2223ZM58.0532 14.2223H59.2384V15.4075H58.0532V14.2223ZM59.2384 14.2223H60.4236V15.4075H59.2384V14.2223ZM60.4236 14.2223H61.6088V15.4075H60.4236V14.2223Z" fill="#18181B"/>
</svg>
