<svg width="66" height="14" viewBox="0 0 66 14" fill="none" xmlns="http://www.w3.org/2000/svg">
<path d="M4.63849 9.72947L-8.28505e-06 5.09098L4.63849 0.452481L5.53337 1.33742L2.42613 4.44467H10.2315V5.73728H2.42613L5.53337 8.83956L4.63849 9.72947ZM16.799 10.1819V6.62804e-05H18.3352V8.85944H22.9489V10.1819H16.799ZM27.7986 10.336C27.0827 10.336 26.458 10.1719 25.9244 9.84382C25.3907 9.51569 24.9764 9.05665 24.6815 8.46669C24.3865 7.87672 24.239 7.18733 24.239 6.3985C24.239 5.60636 24.3865 4.91366 24.6815 4.32038C24.9764 3.7271 25.3907 3.2664 25.9244 2.93828C26.458 2.61015 27.0827 2.44609 27.7986 2.44609C28.5146 2.44609 29.1393 2.61015 29.6729 2.93828C30.2065 3.2664 30.6208 3.7271 30.9158 4.32038C31.2108 4.91366 31.3583 5.60636 31.3583 6.3985C31.3583 7.18733 31.2108 7.87672 30.9158 8.46669C30.6208 9.05665 30.2065 9.51569 29.6729 9.84382C29.1393 10.1719 28.5146 10.336 27.7986 10.336ZM27.8036 9.08813C28.2676 9.08813 28.6521 8.9655 28.957 8.72024C29.2619 8.47497 29.4873 8.1485 29.6332 7.74083C29.7823 7.33316 29.8569 6.88406 29.8569 6.39353C29.8569 5.90632 29.7823 5.45887 29.6332 5.0512C29.4873 4.64022 29.2619 4.31044 28.957 4.06186C28.6521 3.81328 28.2676 3.68899 27.8036 3.68899C27.3363 3.68899 26.9485 3.81328 26.6403 4.06186C26.3353 4.31044 26.1083 4.64022 25.9592 5.0512C25.8133 5.45887 25.7404 5.90632 25.7404 6.39353C25.7404 6.88406 25.8133 7.33316 25.9592 7.74083C26.1083 8.1485 26.3353 8.47497 26.6403 8.72024C26.9485 8.9655 27.3363 9.08813 27.8036 9.08813ZM36.2193 13.2046C35.6127 13.2046 35.0907 13.1251 34.6532 12.966C34.219 12.8069 33.8644 12.5964 33.5893 12.3346C33.3142 12.0727 33.1087 11.7861 32.9728 11.4745L34.2505 10.9475C34.34 11.0933 34.4593 11.2475 34.6085 11.4099C34.7609 11.5756 34.9664 11.7164 35.225 11.8325C35.4868 11.9485 35.8232 12.0065 36.2342 12.0065C36.7976 12.0065 37.2633 11.8689 37.6312 11.5938C37.9991 11.322 38.1831 10.8879 38.1831 10.2913V8.78984H38.0886C37.9991 8.95224 37.8698 9.13288 37.7008 9.33174C37.5351 9.53061 37.3064 9.70295 37.0147 9.84879C36.7231 9.99462 36.3436 10.0675 35.8762 10.0675C35.273 10.0675 34.7295 9.92668 34.2456 9.64495C33.765 9.35992 33.3838 8.94064 33.1021 8.38714C32.8237 7.83032 32.6845 7.1459 32.6845 6.33387C32.6845 5.52185 32.822 4.82582 33.0971 4.24581C33.3755 3.66579 33.7567 3.22166 34.2406 2.91342C34.7245 2.60187 35.273 2.44609 35.8862 2.44609C36.3601 2.44609 36.7429 2.52563 37.0346 2.68473C37.3263 2.8405 37.5533 3.02279 37.7157 3.2316C37.8814 3.44041 38.009 3.62436 38.0985 3.78345H38.2079V2.54552H39.6646V10.3509C39.6646 11.0072 39.5121 11.5458 39.2072 11.9667C38.9023 12.3876 38.4896 12.6992 37.9693 12.9013C37.4522 13.1035 36.8689 13.2046 36.2193 13.2046ZM36.2044 8.83458C36.6319 8.83458 36.9932 8.73515 37.2882 8.53629C37.5865 8.33411 37.8118 8.04576 37.9643 7.67123C38.1201 7.29339 38.198 6.84098 38.198 6.31399C38.198 5.80026 38.1217 5.34784 37.9693 4.95674C37.8168 4.56564 37.5931 4.26072 37.2981 4.04197C37.0031 3.81991 36.6385 3.70887 36.2044 3.70887C35.7569 3.70887 35.384 3.82488 35.0858 4.05688C34.7875 4.28558 34.5621 4.59713 34.4096 4.99154C34.2605 5.38596 34.1859 5.82677 34.1859 6.31399C34.1859 6.81446 34.2621 7.25362 34.4146 7.63146C34.567 8.0093 34.7924 8.30428 35.0907 8.5164C35.3923 8.72852 35.7635 8.83458 36.2044 8.83458ZM48.5799 10.336C47.864 10.336 47.2392 10.1719 46.7056 9.84382C46.172 9.51569 45.7577 9.05665 45.4627 8.46669C45.1677 7.87672 45.0202 7.18733 45.0202 6.3985C45.0202 5.60636 45.1677 4.91366 45.4627 4.32038C45.7577 3.7271 46.172 3.2664 46.7056 2.93828C47.2392 2.61015 47.864 2.44609 48.5799 2.44609C49.2958 2.44609 49.9206 2.61015 50.4542 2.93828C50.9878 3.2664 51.4021 3.7271 51.6971 4.32038C51.9921 4.91366 52.1396 5.60636 52.1396 6.3985C52.1396 7.18733 51.9921 7.87672 51.6971 8.46669C51.4021 9.05665 50.9878 9.51569 50.4542 9.84382C49.9206 10.1719 49.2958 10.336 48.5799 10.336ZM48.5849 9.08813C49.0489 9.08813 49.4333 8.9655 49.7383 8.72024C50.0432 8.47497 50.2686 8.1485 50.4144 7.74083C50.5636 7.33316 50.6381 6.88406 50.6381 6.39353C50.6381 5.90632 50.5636 5.45887 50.4144 5.0512C50.2686 4.64022 50.0432 4.31044 49.7383 4.06186C49.4333 3.81328 49.0489 3.68899 48.5849 3.68899C48.1175 3.68899 47.7298 3.81328 47.4215 4.06186C47.1166 4.31044 46.8896 4.64022 46.7404 5.0512C46.5946 5.45887 46.5217 5.90632 46.5217 6.39353C46.5217 6.88406 46.5946 7.33316 46.7404 7.74083C46.8896 8.1485 47.1166 8.47497 47.4215 8.72024C47.7298 8.9655 48.1175 9.08813 48.5849 9.08813ZM58.6362 7.01498V2.54552H60.1277V10.1819H58.666V8.85944H58.5865C58.4108 9.26711 58.1291 9.60684 57.7413 9.87862C57.3568 10.1471 56.8779 10.2813 56.3045 10.2813C55.814 10.2813 55.3798 10.1736 55.0019 9.95816C54.6274 9.73941 54.3324 9.41626 54.117 8.9887C53.9049 8.56115 53.7988 8.0325 53.7988 7.40277V2.54552H55.2853V7.22379C55.2853 7.74415 55.4295 8.15845 55.7179 8.46669C56.0062 8.77492 56.3807 8.92904 56.8414 8.92904C57.1198 8.92904 57.3966 8.85944 57.6717 8.72024C57.9501 8.58103 58.1804 8.37057 58.3627 8.08884C58.5483 7.80712 58.6395 7.44917 58.6362 7.01498ZM65.6896 2.54552V3.7387H61.5185V2.54552H65.6896ZM62.6371 0.715976H64.1236V7.9397C64.1236 8.22805 64.1667 8.44514 64.2528 8.59098C64.339 8.73349 64.45 8.83127 64.5859 8.8843C64.7251 8.93402 64.8759 8.95887 65.0383 8.95887C65.1577 8.95887 65.2621 8.95059 65.3516 8.93402C65.441 8.91744 65.5106 8.90419 65.5604 8.89424L65.8288 10.1222C65.7427 10.1554 65.62 10.1885 65.4609 10.2217C65.3018 10.2581 65.103 10.278 64.8643 10.2813C64.4732 10.2879 64.1087 10.2183 63.7706 10.0725C63.4325 9.92668 63.1591 9.7013 62.9503 9.39637C62.7415 9.09145 62.6371 8.70864 62.6371 8.24794V0.715976Z" fill="#18181B"/>
</svg>
